<svg xmlns="http://www.w3.org/2000/svg" viewBox="0 0 100 100">
  <!-- Body -->
  <ellipse cx="50" cy="60" rx="30" ry="30" fill="#A57939" />
  
  <!-- Head -->
  <circle cx="50" cy="35" r="25" fill="#8B4513" />
  
  <!-- Eyes -->
  <circle cx="40" cy="30" r="8" fill="#F5F5DC" />
  <circle cx="40" cy="30" r="4" fill="#000" />
  <circle cx="40" cy="30" r="1" fill="#FFF" />
  
  <circle cx="60" cy="30" r="8" fill="#F5F5DC" />
  <circle cx="60" cy="30" r="4" fill="#000" />
  <circle cx="60" cy="30" r="1" fill="#FFF" />
  
  <!-- Eyebrows -->
  <path d="M30 25 Q 40 20 50 25" fill="none" stroke="#5D4037" stroke-width="2" />
  <path d="M70 25 Q 60 20 50 25" fill="none" stroke="#5D4037" stroke-width="2" />
  
  <!-- Beak -->
  <polygon points="50,35 45,45 55,45" fill="#FFA000" />
  
  <!-- Ears/Horn Tufts -->
  <polygon points="30,15 40,25 35,10" fill="#8B4513" />
  <polygon points="70,15 60,25 65,10" fill="#8B4513" />
  
  <!-- Wings -->
  <ellipse cx="25" cy="60" rx="10" ry="20" fill="#8B4513" />
  <ellipse cx="75" cy="60" rx="10" ry="20" fill="#8B4513" />
  
  <!-- Glasses effect -->
  <path d="M35 38 Q 50 45 65 38" fill="none" stroke="#5D4037" stroke-width="1.5" />
</svg> 